<?xml version="1.0" encoding="UTF-8" standalone="no"?>
<!-- Created with Inkscape (http://www.inkscape.org/) -->

<svg
   width="210.12485mm"
   height="296.93643mm"
   viewBox="0 0 210.12485 296.93644"
   version="1.1"
   id="svg5"
   inkscape:version="1.2.1 (9c6d41e410, 2022-07-14)"
   sodipodi:docname="background2.svg"
   xmlns:inkscape="http://www.inkscape.org/namespaces/inkscape"
   xmlns:sodipodi="http://sodipodi.sourceforge.net/DTD/sodipodi-0.dtd"
   xmlns="http://www.w3.org/2000/svg"
   xmlns:svg="http://www.w3.org/2000/svg">
  <sodipodi:namedview
     id="namedview7"
     pagecolor="#ffffff"
     bordercolor="#000000"
     borderopacity="0.25"
     inkscape:showpageshadow="2"
     inkscape:pageopacity="0.0"
     inkscape:pagecheckerboard="0"
     inkscape:deskcolor="#d1d1d1"
     inkscape:document-units="mm"
     showgrid="false"
     inkscape:zoom="0.73584456"
     inkscape:cx="295.57873"
     inkscape:cy="340.42516"
     inkscape:window-width="1920"
     inkscape:window-height="1013"
     inkscape:window-x="-9"
     inkscape:window-y="-9"
     inkscape:window-maximized="1"
     inkscape:current-layer="layer1" />
  <defs
     id="defs2">
    <pattern
       inkscape:collect="always"
       patternUnits="userSpaceOnUse"
       width="2"
       height="2"
       patternTransform="translate(0,0) scale(10,10)"
       id="Checkerboard"
       inkscape:stockid="Checkerboard"
       inkscape:isstock="true">
      <rect
         style="fill:black;stroke:none"
         x="0"
         y="0"
         width="1"
         height="1"
         id="rect2758" />
      <rect
         style="fill:black;stroke:none"
         x="1"
         y="1"
         width="1"
         height="1"
         id="rect2760" />
    </pattern>
    <rect
       x="627.49762"
       y="306.54172"
       width="75.914726"
       height="31.711212"
       id="rect11209" />
    <rect
       x="0.33974567"
       y="1.019237"
       width="793.33527"
       height="1121.9755"
       id="rect5439" />
  </defs>
  <g
     inkscape:label="Calque 1"
     inkscape:groupmode="layer"
     id="layer1"
     transform="translate(0.06356195,-0.04174925)">
    <rect
       style="opacity:0.548822;fill:#2c89a0;fill-opacity:1;stroke-width:1.16562;paint-order:stroke fill markers"
       id="rect111"
       width="210.12485"
       height="296.93643"
       x="-0.063561946"
       y="0.041749246"
       ry="0" />
    <ellipse
       style="opacity:0.643098;fill:#2c89a0;fill-opacity:1;stroke-width:1.165;paint-order:stroke fill markers"
       id="path3729"
       cx="66.359314"
       cy="73.732567"
       rx="50.595802"
       ry="50.341549" />
    <path
       id="path4022"
       style="opacity:0.643098;fill:#37abc8;fill-opacity:1;stroke-width:1.165;paint-order:stroke fill markers"
       d="m 148.73666,24.407812 a 95.343849,98.649094 0 0 0 -7.77214,0.3514 95.343849,98.649094 0 0 0 -2.48718,0.289905 95.343849,98.649094 0 0 0 -5.25756,0.716235 95.343849,98.649094 0 0 0 -2.88303,0.564307 95.343849,98.649094 0 0 0 -4.79092,1.098641 95.343849,98.649094 0 0 0 -2.93988,0.815454 95.343849,98.649094 0 0 0 -4.66948,1.522905 95.343849,98.649094 0 0 0 -2.78433,1.008207 95.343849,98.649094 0 0 0 -4.88135,2.092378 95.343849,98.649094 0 0 0 -2.30787,1.041797 95.343849,98.649094 0 0 0 -13.459644,8.040336 95.343849,98.649094 0 0 0 -2.020549,1.543059 95.343849,98.649094 0 0 0 -4.193026,3.328995 95.343849,98.649094 0 0 0 -2.24379,1.997811 95.343849,98.649094 0 0 0 -3.600297,3.413229 95.343849,98.649094 0 0 0 -2.158525,2.232938 95.343849,98.649094 0 0 0 -3.306775,3.733623 95.343849,98.649094 0 0 0 -1.923397,2.313037 95.343849,98.649094 0 0 0 -3.228226,4.353222 95.343849,98.649094 0 0 0 -1.480013,2.075326 95.343849,98.649094 0 0 0 -4.182691,6.791833 95.343849,98.649094 0 0 0 -3.591512,7.138583 95.343849,98.649094 0 0 0 -1.00614,2.386934 95.343849,98.649094 0 0 0 -2.021582,5.048788 95.343849,98.649094 0 0 0 -0.975651,2.885612 95.343849,98.649094 0 0 0 -1.470195,4.825545 95.343849,98.649094 0 0 0 -0.790132,3.049943 95.343849,98.649094 0 0 0 -1.057817,4.936135 95.343849,98.649094 0 0 0 -0.549837,3.00912 95.343849,98.649094 0 0 0 -0.68833,5.40793 95.343849,98.649094 0 0 0 -0.283187,2.5983 95.343849,98.649094 0 0 0 -0.338997,8.03775 95.343849,98.649094 0 0 0 0.338997,8.03775 95.343849,98.649094 0 0 0 0.283187,2.59829 95.343849,98.649094 0 0 0 0.68833,5.40794 95.343849,98.649094 0 0 0 0.549837,3.00912 95.343849,98.649094 0 0 0 1.057817,4.93613 95.343849,98.649094 0 0 0 0.790132,3.04994 95.343849,98.649094 0 0 0 1.470195,4.82555 95.343849,98.649094 0 0 0 0.975651,2.88561 95.343849,98.649094 0 0 0 2.021582,5.04879 95.343849,98.649094 0 0 0 1.00614,2.38693 95.343849,98.649094 0 0 0 3.591512,7.13859 95.343849,98.649094 0 0 0 4.182691,6.79183 95.343849,98.649094 0 0 0 1.480013,2.07533 95.343849,98.649094 0 0 0 3.228226,4.35322 95.343849,98.649094 0 0 0 1.923397,2.31303 95.343849,98.649094 0 0 0 3.306775,3.73363 95.343849,98.649094 0 0 0 2.158525,2.23294 95.343849,98.649094 0 0 0 3.600297,3.41322 95.343849,98.649094 0 0 0 2.24379,1.99781 95.343849,98.649094 0 0 0 4.193026,3.329 95.343849,98.649094 0 0 0 2.020549,1.54306 95.343849,98.649094 0 0 0 13.459644,8.04034 95.343849,98.649094 0 0 0 2.30787,1.04179 95.343849,98.649094 0 0 0 4.88135,2.09238 95.343849,98.649094 0 0 0 2.78433,1.00821 95.343849,98.649094 0 0 0 4.66948,1.5229 95.343849,98.649094 0 0 0 2.94194,0.81597 95.343849,98.649094 0 0 0 4.77697,1.09606 95.343849,98.649094 0 0 0 2.90267,0.56792 95.343849,98.649094 0 0 0 5.2436,0.71417 95.343849,98.649094 0 0 0 2.49339,0.29042 95.343849,98.649094 0 0 0 7.77214,0.3514 95.343849,98.649094 0 0 0 7.48481,-0.33848 95.343849,98.649094 0 0 0 2.86391,-0.31471 95.343849,98.649094 0 0 0 4.55269,-0.62011 95.343849,98.649094 0 0 0 3.37447,-0.6196 95.343849,98.649094 0 0 0 3.96152,-0.90899 95.343849,98.649094 0 0 0 3.53208,-0.91623 95.343849,98.649094 0 0 0 3.64836,-1.1901 95.343849,98.649094 0 0 0 7.07037,-2.70371 95.343849,98.649094 0 0 0 2.59054,-1.11001 95.343849,98.649094 0 0 0 4.18062,-2.11822 95.343849,98.649094 0 0 0 2.34818,-1.26504 95.343849,98.649094 0 0 0 4.17339,-2.50217 95.343849,98.649094 0 0 0 1.91203,-1.25987 95.343849,98.649094 0 0 0 4.31808,-3.02514 95.343849,98.649094 0 0 0 0.44648,-0.3545 95.343849,98.649094 0 0 0 4.86689,-3.9486 V 47.530949 a 95.343849,98.649094 0 0 0 -5.18005,-4.193026 95.343849,98.649094 0 0 0 -0.15037,-0.112138 95.343849,98.649094 0 0 0 -5.40588,-3.778064 95.343849,98.649094 0 0 0 -0.0481,-0.03152 95.343849,98.649094 0 0 0 -5.72214,-3.423047 95.343849,98.649094 0 0 0 -0.0687,-0.03669 95.343849,98.649094 0 0 0 -5.79292,-2.926437 95.343849,98.649094 0 0 0 -0.28061,-0.130224 95.343849,98.649094 0 0 0 -12.20442,-4.603854 95.343849,98.649094 0 0 0 -0.38034,-0.111621 95.343849,98.649094 0 0 0 -6.09213,-1.573547 95.343849,98.649094 0 0 0 -0.25942,-0.05943 95.343849,98.649094 0 0 0 -6.34793,-1.160136 95.343849,98.649094 0 0 0 -0.30179,-0.04082 95.343849,98.649094 0 0 0 -6.14691,-0.670244 95.343849,98.649094 0 0 0 -0.53072,-0.03979 95.343849,98.649094 0 0 0 -6.41201,-0.232544 z m 65.95153,27.442253 a 95.343849,98.649094 0 0 1 1.30896,1.341004 95.343849,98.649094 0 0 0 -1.30896,-1.341004 z m 4.50257,4.79609 a 95.343849,98.649094 0 0 1 1.23816,1.414384 95.343849,98.649094 0 0 0 -1.23816,-1.414384 z m 8.8191,11.644767 a 95.343849,98.649094 0 0 1 1.00252,1.609721 95.343849,98.649094 0 0 0 -1.00252,-1.609721 z m 3.39927,5.699394 a 95.343849,98.649094 0 0 1 0.91106,1.654679 95.343849,98.649094 0 0 0 -0.91106,-1.654679 z m 6.17378,13.339754 a 95.343849,98.649094 0 0 1 0.64234,1.79679 95.343849,98.649094 0 0 0 -0.64234,-1.79679 z m 2.12597,6.321578 a 95.343849,98.649094 0 0 1 0.54467,1.822111 95.343849,98.649094 0 0 0 -0.54467,-1.822111 z m 3.24011,14.409452 a 95.343849,98.649094 0 0 1 0.25115,1.8924 95.343849,98.649094 0 0 0 -0.25115,-1.8924 z m 0.75396,6.64766 a 95.343849,98.649094 0 0 1 0.1509,1.90169 95.343849,98.649094 0 0 0 -0.1509,-1.90169 z m 0.1509,14.7929 a 95.343849,98.649094 0 0 1 -0.15193,1.91306 95.343849,98.649094 0 0 0 0.15193,-1.91306 z m -0.65267,6.64765 a 95.343849,98.649094 0 0 1 -0.2527,1.90428 95.343849,98.649094 0 0 0 0.2527,-1.90428 z m -2.94814,14.49111 a 95.343849,98.649094 0 0 1 -0.54416,1.82056 95.343849,98.649094 0 0 0 0.54416,-1.82056 z m -2.03141,6.3562 a 95.343849,98.649094 0 0 1 -0.63562,1.77715 95.343849,98.649094 0 0 0 0.63562,-1.77715 z m -5.90144,13.47049 a 95.343849,98.649094 0 0 1 -0.91364,1.65882 95.343849,98.649094 0 0 0 0.91364,-1.65882 z m -3.31091,5.74952 a 95.343849,98.649094 0 0 1 -0.99529,1.59887 95.343849,98.649094 0 0 0 0.99529,-1.59887 z m -8.57674,11.83029 a 95.343849,98.649094 0 0 1 -1.24592,1.4242 95.343849,98.649094 0 0 0 1.24592,-1.4242 z m -4.43125,4.86999 a 95.343849,98.649094 0 0 1 -1.31724,1.34979 95.343849,98.649094 0 0 0 1.31724,-1.34979 z" />
    <path
       id="path3957"
       style="opacity:0.548822;fill:#003380;fill-opacity:1;stroke-width:1.165;paint-order:stroke fill markers"
       d="M 166.27977,220.18088 A 98.140602,98.140602 0 0 0 70.506291,296.97826 H 210.06108 v -66.48897 a 98.140602,98.140602 0 0 0 -43.78131,-10.30841 z m 43.78131,10.30841 a 98.140602,98.140602 0 0 1 6.25543,3.41168 98.140602,98.140602 0 0 0 -6.25543,-3.41168 z M 70.506291,296.97826 a 98.140602,98.140602 0 0 0 -1.308964,7.04969 98.140602,98.140602 0 0 1 1.308964,-7.04969 z M 216.49221,234.0038 a 98.140602,98.140602 0 0 1 5.89422,3.80546 98.140602,98.140602 0 0 0 -5.89422,-3.80546 z m 6.11797,3.96049 a 98.140602,98.140602 0 0 1 5.54489,4.18992 98.140602,98.140602 0 0 0 -5.54489,-4.18992 z m 5.81619,4.41006 a 98.140602,98.140602 0 0 1 5.19141,4.56303 98.140602,98.140602 0 0 0 -5.19141,-4.56303 z m 5.45083,4.80901 a 98.140602,98.140602 0 0 1 4.85603,4.95009 98.140602,98.140602 0 0 0 -4.85603,-4.95009 z m 5.05809,5.17385 a 98.140602,98.140602 0 0 1 4.52272,5.34799 98.140602,98.140602 0 0 0 -4.52272,-5.34799 z m 4.64002,5.49992 a 98.140602,98.140602 0 0 1 4.18941,5.76916 98.140602,98.140602 0 0 0 -4.18941,-5.76916 z m 4.19251,5.77432 a 98.140602,98.140602 0 0 1 3.77858,6.10454 98.140602,98.140602 0 0 0 -3.77858,-6.10454 z m 3.83078,6.19446 a 98.140602,98.140602 0 0 1 3.25975,6.25698 98.140602,98.140602 0 0 0 -3.25975,-6.25698 z m 3.37447,6.49314 a 98.140602,98.140602 0 0 1 2.74402,6.37739 98.140602,98.140602 0 0 0 -2.74402,-6.37739 z m 2.87734,6.7169 a 98.140602,98.140602 0 0 1 2.24534,6.50038 98.140602,98.140602 0 0 0 -2.24534,-6.50038 z m 2.36575,6.89571 a 98.140602,98.140602 0 0 1 1.75648,6.63938 98.140602,98.140602 0 0 0 -1.75648,-6.63938 z m 1.8402,7.01559 a 98.140602,98.140602 0 0 1 1.26917,6.79287 98.140602,98.140602 0 0 0 -1.26917,-6.79287 z m 1.31413,7.10861 a 98.140602,98.140602 0 0 1 0.77308,6.94376 98.140602,98.140602 0 0 0 -0.77308,-6.94376 z m -194.176781,0.004 a 98.140602,98.140602 0 0 0 -0.786515,7.0962 98.140602,98.140602 0 0 1 0.786515,-7.0962 z M 264.157,311.20633 a 98.140602,98.140602 0 0 1 0.26304,7.11481 98.140602,98.140602 0 0 0 -0.26304,-7.11481 z m -0.009,14.39808 a 98.140602,98.140602 0 0 1 -0.005,0.078 98.140602,98.140602 0 0 0 0.005,-0.078 z m -0.81184,7.23832 a 98.140602,98.140602 0 0 1 -0.0233,0.16537 98.140602,98.140602 0 0 0 0.0233,-0.16537 z m -1.34875,7.17166 a 98.140602,98.140602 0 0 1 -0.0512,0.23306 98.140602,98.140602 0 0 0 0.0512,-0.23306 z m -1.88516,7.07812 a 98.140602,98.140602 0 0 1 -0.0765,0.25528 98.140602,98.140602 0 0 0 0.0765,-0.25528 z m -2.4014,6.8988 a 98.140602,98.140602 0 0 1 -0.11937,0.31058 98.140602,98.140602 0 0 0 0.11937,-0.31058 z m -2.91765,6.72466 a 98.140602,98.140602 0 0 1 -0.15296,0.32194 98.140602,98.140602 0 0 0 0.15296,-0.32194 z m -3.40858,6.48177 a 98.140602,98.140602 0 0 1 -0.19534,0.34158 98.140602,98.140602 0 0 0 0.19534,-0.34158 z m -3.8871,6.21719 a 98.140602,98.140602 0 0 1 -0.23306,0.34469 98.140602,98.140602 0 0 0 0.23306,-0.34469 z m -4.34599,5.91695 a 98.140602,98.140602 0 0 1 -0.26407,0.33228 98.140602,98.140602 0 0 0 0.26407,-0.33228 z m -4.7749,5.57434 a 98.140602,98.140602 0 0 1 -0.29611,0.31936 98.140602,98.140602 0 0 0 0.29611,-0.31936 z m -5.18521,5.20847 a 98.140602,98.140602 0 0 1 -0.31316,0.29042 98.140602,98.140602 0 0 0 0.31316,-0.29042 z m -5.55729,4.80281 a 98.140602,98.140602 0 0 1 -0.33538,0.26665 98.140602,98.140602 0 0 0 0.33538,-0.26665 z m -5.91023,4.38112 a 98.140602,98.140602 0 0 1 -0.33228,0.22531 98.140602,98.140602 0 0 0 0.33228,-0.22531 z m -6.21564,3.92173 a 98.140602,98.140602 0 0 1 -0.34158,0.19534 98.140602,98.140602 0 0 0 0.34158,-0.19534 z m -6.49676,3.44888 a 98.140602,98.140602 0 0 1 -0.33435,0.15865 98.140602,98.140602 0 0 0 0.33435,-0.15865 z m -6.74481,2.95538 a 98.140602,98.140602 0 0 1 -0.30128,0.11627 98.140602,98.140602 0 0 0 0.30128,-0.11627 z m -6.93963,2.43913 a 98.140602,98.140602 0 0 1 -0.28215,0.0842 98.140602,98.140602 0 0 0 0.28215,-0.0842 z m -7.10964,1.91409 a 98.140602,98.140602 0 0 1 -0.23771,0.0517 98.140602,98.140602 0 0 0 0.23771,-0.0517 z m -7.24246,1.37718 a 98.140602,98.140602 0 0 1 -0.16123,0.0222 98.140602,98.140602 0 0 0 0.16123,-0.0222 z m -7.32461,0.82941 a 98.140602,98.140602 0 0 1 -0.0765,0.005 98.140602,98.140602 0 0 0 0.0765,-0.005 z" />
    <rect
       style="opacity:0.10416667;fill:url(#Checkerboard);fill-opacity:1;stroke-width:1.16562;paint-order:stroke fill markers"
       id="rect4832"
       width="210.12485"
       height="296.93643"
       x="-0.063561946"
       y="0.041749246"
       ry="0" />
    <ellipse
       style="opacity:0.548822;fill:#003380;fill-opacity:1;stroke-width:0.271744;paint-order:stroke fill markers"
       id="path4848"
       cx="30.063679"
       cy="111.90581"
       rx="14.086964"
       ry="14.009851" />
    <path
       id="path4848-6"
       style="opacity:0.548822;fill:#003380;fill-opacity:1;stroke-width:0.372586;paint-order:stroke fill markers"
       d="m 10.543543,132.01509 a 19.120861,19.403315 0 0 0 -10.60710495,3.26698 v 29.4163 a 14.086964,14.009851 0 0 1 1.97765705,-0.14263 14.086964,14.009851 0 0 1 11.5755209,6.03271 19.120861,19.403315 0 0 0 16.174723,-19.17041 19.120861,19.403315 0 0 0 -19.120796,-19.40295 z" />
    <ellipse
       style="opacity:0.548822;fill:#002255;fill-opacity:1;stroke-width:0.18851;paint-order:stroke fill markers"
       id="path4848-4"
       cx="37.870461"
       cy="182.31717"
       rx="9.7721939"
       ry="9.7187004" />
    <path
       id="path4848-3"
       style="opacity:0.548822;fill:#2c89a0;fill-opacity:1;stroke-width:0.271744;paint-order:stroke fill markers"
       d="m 1.9140951,164.55574 a 14.086964,14.009851 0 0 0 -1.97765705,0.14263 v 27.7337 a 14.086964,14.009851 0 0 0 1.97765705,0.14315 14.086964,14.009851 0 0 0 14.0869959,-14.01 14.086964,14.009851 0 0 0 -14.0869959,-14.00948 z" />
    <circle
       style="opacity:0.548822;fill:#006080;fill-opacity:1;stroke-width:1.165;paint-order:stroke fill markers"
       id="circle4859"
       cx="120.85499"
       cy="227.31152"
       r="60.226997" />
    <text
       xml:space="preserve"
       style="font-size:4.23333px;opacity:0.548822;fill:#80e5ff;fill-opacity:1;stroke-width:1.165;paint-order:stroke fill markers"
       x="146.70239"
       y="63.054066"
       id="text11203"><tspan
         sodipodi:role="line"
         id="tspan11201"
         style="stroke-width:1.165"
         x="146.70239"
         y="63.054066"></tspan></text>
    <text
       xml:space="preserve"
       transform="scale(0.26458333)"
       id="text11207"
       style="font-size:16px;white-space:pre;shape-inside:url(#rect11209);display:inline;opacity:0.548822;fill:#80e5ff;fill-opacity:1;stroke-width:4.40315;paint-order:stroke fill markers" />
  </g>
</svg>
