<?xml version="1.0" encoding="UTF-8" standalone="no"?>
<!-- Created with Inkscape (http://www.inkscape.org/) -->

<svg
   width="210mm"
   height="297mm"
   viewBox="0 0 210 297"
   version="1.1"
   id="svg5"
   inkscape:version="1.2.1 (9c6d41e410, 2022-07-14)"
   sodipodi:docname="background1.svg"
   xmlns:inkscape="http://www.inkscape.org/namespaces/inkscape"
   xmlns:sodipodi="http://sodipodi.sourceforge.net/DTD/sodipodi-0.dtd"
   xmlns="http://www.w3.org/2000/svg"
   xmlns:svg="http://www.w3.org/2000/svg">
  <sodipodi:namedview
     id="namedview7"
     pagecolor="#ffffff"
     bordercolor="#000000"
     borderopacity="0.25"
     inkscape:showpageshadow="2"
     inkscape:pageopacity="0.0"
     inkscape:pagecheckerboard="0"
     inkscape:deskcolor="#d1d1d1"
     inkscape:document-units="mm"
     showgrid="false"
     inkscape:zoom="1.4716891"
     inkscape:cx="569.75348"
     inkscape:cy="963.17897"
     inkscape:window-width="1920"
     inkscape:window-height="1013"
     inkscape:window-x="-9"
     inkscape:window-y="-9"
     inkscape:window-maximized="1"
     inkscape:current-layer="layer1" />
  <defs
     id="defs2">
    <rect
       x="627.49765"
       y="306.54173"
       width="75.914723"
       height="31.711213"
       id="rect11209" />
    <rect
       x="0.33974567"
       y="1.019237"
       width="793.33529"
       height="1121.9755"
       id="rect5439" />
  </defs>
  <g
     inkscape:label="Calque 1"
     inkscape:groupmode="layer"
     id="layer1">
    <rect
       style="opacity:0.54882155;fill:#2c89a0;fill-opacity:1;stroke-width:1.16562;paint-order:stroke fill markers"
       id="rect111"
       width="210.12485"
       height="296.93643"
       x="-0.063561946"
       y="0.041749246"
       ry="0" />
    <ellipse
       style="opacity:0.643098;fill:#2c89a0;fill-opacity:1;stroke-width:1.165;paint-order:stroke fill markers"
       id="path3729"
       cx="66.359314"
       cy="73.732567"
       rx="50.595802"
       ry="50.341549" />
    <path
       id="path4022"
       style="opacity:0.643098;fill:#37abc8;fill-opacity:1;stroke-width:1.165;paint-order:stroke fill markers"
       d="M 148.73666 24.407812 A 95.343849 98.649094 0 0 0 140.96452 24.759212 A 95.343849 98.649094 0 0 0 138.47734 25.049117 A 95.343849 98.649094 0 0 0 133.21978 25.765352 A 95.343849 98.649094 0 0 0 130.33675 26.329659 A 95.343849 98.649094 0 0 0 125.54583 27.4283 A 95.343849 98.649094 0 0 0 122.60595 28.243754 A 95.343849 98.649094 0 0 0 117.93647 29.766659 A 95.343849 98.649094 0 0 0 115.15214 30.774866 A 95.343849 98.649094 0 0 0 110.27079 32.867244 A 95.343849 98.649094 0 0 0 107.96292 33.909041 A 95.343849 98.649094 0 0 0 94.503276 41.949377 A 95.343849 98.649094 0 0 0 92.482727 43.492436 A 95.343849 98.649094 0 0 0 88.289701 46.821431 A 95.343849 98.649094 0 0 0 86.045911 48.819242 A 95.343849 98.649094 0 0 0 82.445614 52.232471 A 95.343849 98.649094 0 0 0 80.287089 54.465409 A 95.343849 98.649094 0 0 0 76.980314 58.199032 A 95.343849 98.649094 0 0 0 75.056917 60.512069 A 95.343849 98.649094 0 0 0 71.828691 64.865291 A 95.343849 98.649094 0 0 0 70.348678 66.940617 A 95.343849 98.649094 0 0 0 66.165987 73.73245 A 95.343849 98.649094 0 0 0 62.574475 80.871033 A 95.343849 98.649094 0 0 0 61.568335 83.257967 A 95.343849 98.649094 0 0 0 59.546753 88.306755 A 95.343849 98.649094 0 0 0 58.571102 91.192367 A 95.343849 98.649094 0 0 0 57.100907 96.017912 A 95.343849 98.649094 0 0 0 56.310775 99.067855 A 95.343849 98.649094 0 0 0 55.252958 104.00399 A 95.343849 98.649094 0 0 0 54.703121 107.01311 A 95.343849 98.649094 0 0 0 54.014791 112.42104 A 95.343849 98.649094 0 0 0 53.731604 115.01934 A 95.343849 98.649094 0 0 0 53.392607 123.05709 A 95.343849 98.649094 0 0 0 53.731604 131.09484 A 95.343849 98.649094 0 0 0 54.014791 133.69313 A 95.343849 98.649094 0 0 0 54.703121 139.10107 A 95.343849 98.649094 0 0 0 55.252958 142.11019 A 95.343849 98.649094 0 0 0 56.310775 147.04632 A 95.343849 98.649094 0 0 0 57.100907 150.09626 A 95.343849 98.649094 0 0 0 58.571102 154.92181 A 95.343849 98.649094 0 0 0 59.546753 157.80742 A 95.343849 98.649094 0 0 0 61.568335 162.85621 A 95.343849 98.649094 0 0 0 62.574475 165.24314 A 95.343849 98.649094 0 0 0 66.165987 172.38173 A 95.343849 98.649094 0 0 0 70.348678 179.17356 A 95.343849 98.649094 0 0 0 71.828691 181.24889 A 95.343849 98.649094 0 0 0 75.056917 185.60211 A 95.343849 98.649094 0 0 0 76.980314 187.91514 A 95.343849 98.649094 0 0 0 80.287089 191.64877 A 95.343849 98.649094 0 0 0 82.445614 193.88171 A 95.343849 98.649094 0 0 0 86.045911 197.29493 A 95.343849 98.649094 0 0 0 88.289701 199.29274 A 95.343849 98.649094 0 0 0 92.482727 202.62174 A 95.343849 98.649094 0 0 0 94.503276 204.1648 A 95.343849 98.649094 0 0 0 107.96292 212.20514 A 95.343849 98.649094 0 0 0 110.27079 213.24693 A 95.343849 98.649094 0 0 0 115.15214 215.33931 A 95.343849 98.649094 0 0 0 117.93647 216.34752 A 95.343849 98.649094 0 0 0 122.60595 217.87042 A 95.343849 98.649094 0 0 0 125.54789 218.68639 A 95.343849 98.649094 0 0 0 130.32486 219.78245 A 95.343849 98.649094 0 0 0 133.22753 220.35037 A 95.343849 98.649094 0 0 0 138.47113 221.06454 A 95.343849 98.649094 0 0 0 140.96452 221.35496 A 95.343849 98.649094 0 0 0 148.73666 221.70636 A 95.343849 98.649094 0 0 0 156.22147 221.36788 A 95.343849 98.649094 0 0 0 159.08538 221.05317 A 95.343849 98.649094 0 0 0 163.63807 220.43306 A 95.343849 98.649094 0 0 0 167.01254 219.81346 A 95.343849 98.649094 0 0 0 170.97406 218.90447 A 95.343849 98.649094 0 0 0 174.50614 217.98824 A 95.343849 98.649094 0 0 0 178.1545 216.79814 A 95.343849 98.649094 0 0 0 185.22487 214.09443 A 95.343849 98.649094 0 0 0 187.81541 212.98442 A 95.343849 98.649094 0 0 0 191.99603 210.8662 A 95.343849 98.649094 0 0 0 194.34421 209.60116 A 95.343849 98.649094 0 0 0 198.5176 207.09899 A 95.343849 98.649094 0 0 0 200.42963 205.83912 A 95.343849 98.649094 0 0 0 204.74771 202.81398 A 95.343849 98.649094 0 0 0 205.19419 202.45948 A 95.343849 98.649094 0 0 0 210.06108 198.51088 L 210.06108 47.530949 A 95.343849 98.649094 0 0 0 204.88103 43.337923 A 95.343849 98.649094 0 0 0 204.73066 43.225785 A 95.343849 98.649094 0 0 0 199.32478 39.447721 A 95.343849 98.649094 0 0 0 199.27673 39.416199 A 95.343849 98.649094 0 0 0 193.55459 35.993152 A 95.343849 98.649094 0 0 0 193.48586 35.956462 A 95.343849 98.649094 0 0 0 187.69294 33.030025 A 95.343849 98.649094 0 0 0 187.41233 32.899801 A 95.343849 98.649094 0 0 0 175.20791 28.295947 A 95.343849 98.649094 0 0 0 174.82757 28.184326 A 95.343849 98.649094 0 0 0 168.73544 26.610779 A 95.343849 98.649094 0 0 0 168.47602 26.551351 A 95.343849 98.649094 0 0 0 162.12809 25.391215 A 95.343849 98.649094 0 0 0 161.8263 25.350391 A 95.343849 98.649094 0 0 0 155.67939 24.680147 A 95.343849 98.649094 0 0 0 155.14867 24.640356 A 95.343849 98.649094 0 0 0 148.73666 24.407812 z M 214.68819 51.850065 A 95.343849 98.649094 0 0 1 215.99715 53.191069 A 95.343849 98.649094 0 0 0 214.68819 51.850065 z M 219.19076 56.646155 A 95.343849 98.649094 0 0 1 220.42892 58.060539 A 95.343849 98.649094 0 0 0 219.19076 56.646155 z M 228.00986 68.290922 A 95.343849 98.649094 0 0 1 229.01238 69.900643 A 95.343849 98.649094 0 0 0 228.00986 68.290922 z M 231.40913 73.990316 A 95.343849 98.649094 0 0 1 232.32019 75.644995 A 95.343849 98.649094 0 0 0 231.40913 73.990316 z M 237.58291 87.33007 A 95.343849 98.649094 0 0 1 238.22525 89.12686 A 95.343849 98.649094 0 0 0 237.58291 87.33007 z M 239.70888 93.651648 A 95.343849 98.649094 0 0 1 240.25355 95.473759 A 95.343849 98.649094 0 0 0 239.70888 93.651648 z M 242.94899 108.0611 A 95.343849 98.649094 0 0 1 243.20014 109.9535 A 95.343849 98.649094 0 0 0 242.94899 108.0611 z M 243.70295 114.70876 A 95.343849 98.649094 0 0 1 243.85385 116.61045 A 95.343849 98.649094 0 0 0 243.70295 114.70876 z M 243.85385 129.50166 A 95.343849 98.649094 0 0 1 243.70192 131.41472 A 95.343849 98.649094 0 0 0 243.85385 129.50166 z M 243.20118 136.14931 A 95.343849 98.649094 0 0 1 242.94848 138.05359 A 95.343849 98.649094 0 0 0 243.20118 136.14931 z M 240.25304 150.64042 A 95.343849 98.649094 0 0 1 239.70888 152.46098 A 95.343849 98.649094 0 0 0 240.25304 150.64042 z M 238.22163 156.99662 A 95.343849 98.649094 0 0 1 237.58601 158.77377 A 95.343849 98.649094 0 0 0 238.22163 156.99662 z M 232.32019 170.46711 A 95.343849 98.649094 0 0 1 231.40655 172.12593 A 95.343849 98.649094 0 0 0 232.32019 170.46711 z M 229.00928 176.21663 A 95.343849 98.649094 0 0 1 228.01399 177.8155 A 95.343849 98.649094 0 0 0 229.00928 176.21663 z M 220.43254 188.04692 A 95.343849 98.649094 0 0 1 219.18662 189.47112 A 95.343849 98.649094 0 0 0 220.43254 188.04692 z M 216.00129 192.91691 A 95.343849 98.649094 0 0 1 214.68405 194.2667 A 95.343849 98.649094 0 0 0 216.00129 192.91691 z " />
    <path
       id="path3957"
       style="opacity:0.548822;fill:#003380;fill-opacity:1;stroke-width:1.165;paint-order:stroke fill markers"
       d="M 166.27977 220.18088 A 98.140602 98.140602 0 0 0 70.506291 296.97826 L 210.06108 296.97826 L 210.06108 230.48929 A 98.140602 98.140602 0 0 0 166.27977 220.18088 z M 210.06108 230.48929 A 98.140602 98.140602 0 0 1 216.31651 233.90097 A 98.140602 98.140602 0 0 0 210.06108 230.48929 z M 70.506291 296.97826 A 98.140602 98.140602 0 0 0 69.197327 304.02795 A 98.140602 98.140602 0 0 1 70.506291 296.97826 z M 216.49221 234.0038 A 98.140602 98.140602 0 0 1 222.38643 237.80926 A 98.140602 98.140602 0 0 0 216.49221 234.0038 z M 222.61018 237.96429 A 98.140602 98.140602 0 0 1 228.15507 242.15421 A 98.140602 98.140602 0 0 0 222.61018 237.96429 z M 228.42637 242.37435 A 98.140602 98.140602 0 0 1 233.61778 246.93738 A 98.140602 98.140602 0 0 0 228.42637 242.37435 z M 233.8772 247.18336 A 98.140602 98.140602 0 0 1 238.73323 252.13345 A 98.140602 98.140602 0 0 0 233.8772 247.18336 z M 238.93529 252.35721 A 98.140602 98.140602 0 0 1 243.45801 257.7052 A 98.140602 98.140602 0 0 0 238.93529 252.35721 z M 243.57531 257.85713 A 98.140602 98.140602 0 0 1 247.76472 263.62629 A 98.140602 98.140602 0 0 0 243.57531 257.85713 z M 247.76782 263.63145 A 98.140602 98.140602 0 0 1 251.5464 269.73599 A 98.140602 98.140602 0 0 0 247.76782 263.63145 z M 251.5986 269.82591 A 98.140602 98.140602 0 0 1 254.85835 276.08289 A 98.140602 98.140602 0 0 0 251.5986 269.82591 z M 254.97307 276.31905 A 98.140602 98.140602 0 0 1 257.71709 282.69644 A 98.140602 98.140602 0 0 0 254.97307 276.31905 z M 257.85041 283.03595 A 98.140602 98.140602 0 0 1 260.09575 289.53633 A 98.140602 98.140602 0 0 0 257.85041 283.03595 z M 260.21616 289.93166 A 98.140602 98.140602 0 0 1 261.97264 296.57104 A 98.140602 98.140602 0 0 0 260.21616 289.93166 z M 262.05636 296.94725 A 98.140602 98.140602 0 0 1 263.32553 303.74012 A 98.140602 98.140602 0 0 0 262.05636 296.94725 z M 263.37049 304.05586 A 98.140602 98.140602 0 0 1 264.14357 310.99962 A 98.140602 98.140602 0 0 0 263.37049 304.05586 z M 69.193709 304.05948 A 98.140602 98.140602 0 0 0 68.407194 311.15568 A 98.140602 98.140602 0 0 1 69.193709 304.05948 z M 264.157 311.20633 A 98.140602 98.140602 0 0 1 264.42004 318.32114 A 98.140602 98.140602 0 0 0 264.157 311.20633 z M 264.1477 325.60441 A 98.140602 98.140602 0 0 1 264.14253 325.68245 A 98.140602 98.140602 0 0 0 264.1477 325.60441 z M 263.33586 332.84273 A 98.140602 98.140602 0 0 1 263.31261 333.0081 A 98.140602 98.140602 0 0 0 263.33586 332.84273 z M 261.98711 340.01439 A 98.140602 98.140602 0 0 1 261.93595 340.24745 A 98.140602 98.140602 0 0 0 261.98711 340.01439 z M 260.10195 347.09251 A 98.140602 98.140602 0 0 1 260.02547 347.34779 A 98.140602 98.140602 0 0 0 260.10195 347.09251 z M 257.70055 353.99131 A 98.140602 98.140602 0 0 1 257.58118 354.30189 A 98.140602 98.140602 0 0 0 257.70055 353.99131 z M 254.7829 360.71597 A 98.140602 98.140602 0 0 1 254.62994 361.03791 A 98.140602 98.140602 0 0 0 254.7829 360.71597 z M 251.37432 367.19774 A 98.140602 98.140602 0 0 1 251.17898 367.53932 A 98.140602 98.140602 0 0 0 251.37432 367.19774 z M 247.48722 373.41493 A 98.140602 98.140602 0 0 1 247.25416 373.75962 A 98.140602 98.140602 0 0 0 247.48722 373.41493 z M 243.14123 379.33188 A 98.140602 98.140602 0 0 1 242.87716 379.66416 A 98.140602 98.140602 0 0 0 243.14123 379.33188 z M 238.36633 384.90622 A 98.140602 98.140602 0 0 1 238.07022 385.22558 A 98.140602 98.140602 0 0 0 238.36633 384.90622 z M 233.18112 390.11469 A 98.140602 98.140602 0 0 1 232.86796 390.40511 A 98.140602 98.140602 0 0 0 233.18112 390.11469 z M 227.62383 394.9175 A 98.140602 98.140602 0 0 1 227.28845 395.18415 A 98.140602 98.140602 0 0 0 227.62383 394.9175 z M 221.7136 399.29862 A 98.140602 98.140602 0 0 1 221.38132 399.52393 A 98.140602 98.140602 0 0 0 221.7136 399.29862 z M 215.49796 403.22035 A 98.140602 98.140602 0 0 1 215.15638 403.41569 A 98.140602 98.140602 0 0 0 215.49796 403.22035 z M 209.0012 406.66923 A 98.140602 98.140602 0 0 1 208.66685 406.82788 A 98.140602 98.140602 0 0 0 209.0012 406.66923 z M 202.25639 409.62461 A 98.140602 98.140602 0 0 1 201.95511 409.74088 A 98.140602 98.140602 0 0 0 202.25639 409.62461 z M 195.31676 412.06374 A 98.140602 98.140602 0 0 1 195.03461 412.14797 A 98.140602 98.140602 0 0 0 195.31676 412.06374 z M 188.20712 413.97783 A 98.140602 98.140602 0 0 1 187.96941 414.02951 A 98.140602 98.140602 0 0 0 188.20712 413.97783 z M 180.96466 415.35501 A 98.140602 98.140602 0 0 1 180.80343 415.37723 A 98.140602 98.140602 0 0 0 180.96466 415.35501 z M 173.64005 416.18442 A 98.140602 98.140602 0 0 1 173.56357 416.18958 A 98.140602 98.140602 0 0 0 173.64005 416.18442 z " />
    <rect
       style="opacity:0.54882155;fill:#2c89a0;fill-opacity:1;stroke-width:1.16562;paint-order:stroke fill markers"
       id="rect4832"
       width="210.12485"
       height="296.93643"
       x="-0.063561946"
       y="0.041749246"
       ry="0" />
    <ellipse
       style="opacity:0.548822;fill:#003380;fill-opacity:1;stroke-width:0.296703;paint-order:stroke fill markers"
       id="path4848"
       cx="30.692917"
       cy="113.88341"
       rx="14.716201"
       ry="15.987453" />
    <circle
       style="opacity:0.548822;fill:#006080;fill-opacity:1;stroke-width:1.165;paint-order:stroke fill markers"
       id="circle4859"
       cx="120.85499"
       cy="227.31152"
       r="60.226997" />
    <text
       xml:space="preserve"
       transform="matrix(0.29164775,0,0,0.29047201,-0.03041618,-0.1029731)"
       id="text5437"
       style="font-size:16px;white-space:pre;display:inline;opacity:0.548822;fill:#80e5ff;fill-opacity:1;stroke-width:4.40315;paint-order:stroke fill markers;shape-inside:url(#rect5439)"><tspan
         x="0.33984375"
         y="15.577534"
         id="tspan13668">01001010001010101101011100100110001010101000101010001001110101011010111010101110101010</tspan><tspan
         x="0.33984375"
         y="35.577534"
         id="tspan13670">10101000010101010100010100010011000100100010011111000101010111001100111000100010001011</tspan><tspan
         x="0.33984375"
         y="55.577534"
         id="tspan13672">11111111110000011111000000001110000000010000010000111111000010111001111010101001101001
</tspan><tspan
         x="0.33984375"
         y="75.577534"
         id="tspan13674">01010010101010100100010111111001010010010001010100101000101010101010111001010100101010</tspan><tspan
         x="0.33984375"
         y="95.577534"
         id="tspan13676">11001010011000101101010101010101010101010101001001010101010101010101010100100010101011</tspan><tspan
         x="0.33984375"
         y="115.57753"
         id="tspan13678">00001010100101010110111011101010101010010101101001010010101010101010101010101010101001</tspan><tspan
         x="0.33984375"
         y="135.57753"
         id="tspan13680">10101010101010101001010100101010010101010101001010000101010101010001011101010100101010</tspan><tspan
         x="0.33984375"
         y="155.57753"
         id="tspan13682">10101001010101010101010101101101010101010101010110111010100101000101010110101110010011</tspan><tspan
         x="0.33984375"
         y="175.57753"
         id="tspan13684">00010101010001010100010011101010110101110101011101010101010100001010101010001010001001</tspan><tspan
         x="0.33984375"
         y="195.57753"
         id="tspan13686">10001001000100111110001010101110011001110001000100010111111111111000001111100000000111</tspan><tspan
         x="0.33984375"
         y="215.57753"
         id="tspan13688">00000000100000100001111110000101110011110101010011010010100101000101010110101110010011</tspan><tspan
         x="0.33984375"
         y="235.57753"
         id="tspan13690">00010101010001010100010011101010110101110101011101010101010100001010101010001010001001</tspan><tspan
         x="0.33984375"
         y="255.57753"
         id="tspan13692">10001001000100111110001010101110011001110001000100010111111111111000001111100000000111</tspan><tspan
         x="0.33984375"
         y="275.57753"
         id="tspan13694">00000000100000100001111110000101110011110101010011010010101010101010000101010101000101</tspan><tspan
         x="0.33984375"
         y="295.57753"
         id="tspan13696">00010011000100100010011111000101010111001100111000100010001011111111111100000111110000</tspan><tspan
         x="0.33984375"
         y="315.57753"
         id="tspan13698">00001110000000010000010000111111000010111001111010101001101001010010100010101011010111</tspan><tspan
         x="0.33984375"
         y="335.57753"
         id="tspan13700">0010011000101010100010101000100111010101101011101010111010101010101011111111110
</tspan><tspan
         x="0.33984375"
         y="355.57753"
         id="tspan13702">01010010101010100100010111111001010010010001010100101000101010101010111001010100101010</tspan><tspan
         x="0.33984375"
         y="375.57753"
         id="tspan13704">11001010011000101101010101010101010101010101001001010101010101010101010100100010101011</tspan><tspan
         x="0.33984375"
         y="395.57753"
         id="tspan13706">00001010100101010110111011101010101010010101101001010010101010101010101010101010101001</tspan><tspan
         x="0.33984375"
         y="415.57753"
         id="tspan13708">10101010101010101001010100101010010101010101001010000101010101010001011101010100101010</tspan><tspan
         x="0.33984375"
         y="435.57753"
         id="tspan13710">10101001010101010101010101101101010101010101010110111011010101000110101010100101011110</tspan><tspan
         x="0.33984375"
         y="455.57753"
         id="tspan13712">10011101010010010100010100101011101001000101110101010111101101011010101010100100110010</tspan><tspan
         x="0.33984375"
         y="475.57753"
         id="tspan13714">01111100111111011101010101011100111101010100100110100110011101010010100101011101001111</tspan><tspan
         x="0.33984375"
         y="495.57753"
         id="tspan13716">01010101000101010101010101010100110101001010101001011010010101010111101110101100101010</tspan><tspan
         x="0.33984375"
         y="515.57753"
         id="tspan13718">10011001010100101010101010011100100101110100100010101001010010101000100100100000110000</tspan><tspan
         x="0.33984375"
         y="535.57753"
         id="tspan13720">00101000010000000100000010010100001101010101010111010110011011011101111011111011111101</tspan><tspan
         x="0.33984375"
         y="555.57753"
         id="tspan13722">11111011000100010001000001000010110101101010101010010101010101000010111010101010010101</tspan><tspan
         x="0.33984375"
         y="575.57753"
         id="tspan13724">01010010111101001010101000101110101011101001010011101000110000110010101010110001010010
</tspan><tspan
         x="0.33984375"
         y="595.57753"
         id="tspan13726">01010010101010100100010111111001010010010001010100101000101010101010111001010100101010</tspan><tspan
         x="0.33984375"
         y="615.57753"
         id="tspan13728">11001010011000101101010101010101010101010101001001010101010101010101010100100010101011</tspan><tspan
         x="0.33984375"
         y="635.57753"
         id="tspan13730">00001010100101010110111011101010101010010101101001010010101010101010101010101010101001</tspan><tspan
         x="0.33984375"
         y="655.57753"
         id="tspan13732">10101010101010101001010100101010010101010101001010000101010101010001011101010100101010</tspan><tspan
         x="0.33984375"
         y="675.57753"
         id="tspan13734">10101001010101010101010101101101010101010101010110111011010101000110101010100101011110</tspan><tspan
         x="0.33984375"
         y="695.57753"
         id="tspan13736">10011101010010010100010100101011101001000101110101010111101101011010101010100100110010</tspan><tspan
         x="0.33984375"
         y="715.57753"
         id="tspan13738">01111100111111011101010101011100111101010100100110100110011101010010100101011101001111</tspan><tspan
         x="0.33984375"
         y="735.57753"
         id="tspan13740">01010101000101010101010101010100110101001010101001011010010101010111101110101100101010</tspan><tspan
         x="0.33984375"
         y="755.57753"
         id="tspan13742">10011001010100101010101010011100100101110100100010101001010010101000100100100000110000</tspan><tspan
         x="0.33984375"
         y="775.57753"
         id="tspan13744">00101000010000000100000010010100001101010101010111010110011011011101111011111011111101</tspan><tspan
         x="0.33984375"
         y="795.57753"
         id="tspan13746">11111011000100010001000001000010110101101010101010010101010101000010111010101010010101</tspan><tspan
         x="0.33984375"
         y="815.57753"
         id="tspan13748">01010010111101001010101000101110101011101001010011101000110000110010101010110001010010</tspan><tspan
         x="0.33984375"
         y="835.57753"
         id="tspan13750">10101010001101010101001010111101001110101001001010001010010101110100100010111010101011</tspan><tspan
         x="0.33984375"
         y="855.57753"
         id="tspan13752">11011010110101010101001001100100111110011111101110101010101110011110101010010011010011</tspan><tspan
         x="0.33984375"
         y="875.57753"
         id="tspan13754">00111010100101001010111010011110101010100010101010101010101010011010100101010100101101</tspan><tspan
         x="0.33984375"
         y="895.57753"
         id="tspan13756">00101010101111011101011001010101001100101010010101010101001110010010111010010001010100</tspan><tspan
         x="0.33984375"
         y="915.57753"
         id="tspan13758">10100101010001001001000001100000010100001000000010000001001010000110101010101011101011</tspan><tspan
         x="0.33984375"
         y="935.57753"
         id="tspan13760">00110110111011110111110111111011111101100010001000100000100001011010110101010101001010</tspan><tspan
         x="0.33984375"
         y="955.57753"
         id="tspan13762">10101010000101110101010100101010101001011110100101010100010111010101110100101001110100</tspan><tspan
         x="0.33984375"
         y="975.57753"
         id="tspan13764">01100001100101010101100010100100011111001111110111010101010111001111010101001001101001</tspan><tspan
         x="0.33984375"
         y="995.57753"
         id="tspan13766">10011101010010100101011101001111010101010001010101010101010101001101010010101010010110</tspan><tspan
         x="0.33984375"
         y="1015.5775"
         id="tspan13768">10010101010111101110101100101010100110010101001010101010100111001001011101001000101010</tspan><tspan
         x="0.33984375"
         y="1035.5775"
         id="tspan13770">01010010101000100100100000110000001010000100000001000000100101000011010101010101110101</tspan><tspan
         x="0.33984375"
         y="1055.5775"
         id="tspan13772">10011011011101111011111011111101111110110001000100010000010000101101011010101010100101</tspan><tspan
         x="0.33984375"
         y="1075.5775"
         id="tspan13774">01010101000010111010101010010101010100101111010010101010001011101010111010010100111010</tspan><tspan
         x="0.33984375"
         y="1095.5775"
         id="tspan13776">00110000110010101010110001010010</tspan></text>
    <text
       xml:space="preserve"
       style="font-size:4.23333px;opacity:0.548822;fill:#80e5ff;fill-opacity:1;stroke-width:1.165;paint-order:stroke fill markers"
       x="146.70239"
       y="63.054066"
       id="text11203"><tspan
         sodipodi:role="line"
         id="tspan11201"
         style="stroke-width:1.165"></tspan></text>
    <text
       xml:space="preserve"
       transform="scale(0.26458333)"
       id="text11207"
       style="font-size:16px;white-space:pre;shape-inside:url(#rect11209);display:inline;opacity:0.548822;fill:#80e5ff;fill-opacity:1;stroke-width:4.40315;paint-order:stroke fill markers" />
  </g>
</svg>
