<?xml version="1.0" encoding="UTF-8" standalone="no"?>
<!-- Created with Inkscape (http://www.inkscape.org/) -->

<svg
   width="1280.2341"
   height="170.90088"
   viewBox="0 0 338.72861 45.217524"
   version="1.1"
   id="svg917"
   inkscape:version="1.2.1 (9c6d41e410, 2022-07-14)"
   sodipodi:docname="NvimvsCode.svg"
   xml:space="preserve"
   xmlns:inkscape="http://www.inkscape.org/namespaces/inkscape"
   xmlns:sodipodi="http://sodipodi.sourceforge.net/DTD/sodipodi-0.dtd"
   xmlns:xlink="http://www.w3.org/1999/xlink"
   xmlns="http://www.w3.org/2000/svg"
   xmlns:svg="http://www.w3.org/2000/svg"
   xmlns:sketch="http://www.bohemiancoding.com/sketch/ns"><sodipodi:namedview
     id="namedview919"
     pagecolor="#ffffff"
     bordercolor="#000000"
     borderopacity="0.25"
     inkscape:showpageshadow="2"
     inkscape:pageopacity="0.0"
     inkscape:pagecheckerboard="0"
     inkscape:deskcolor="#d1d1d1"
     inkscape:document-units="mm"
     showgrid="false"
     inkscape:zoom="1.0406414"
     inkscape:cx="761.5496"
     inkscape:cy="227.2637"
     inkscape:window-width="1920"
     inkscape:window-height="1013"
     inkscape:window-x="-9"
     inkscape:window-y="-9"
     inkscape:window-maximized="1"
     inkscape:current-layer="g25810"><sodipodi:guide
       position="367.39162,5.5544837"
       orientation="0,1280.2341"
       id="guide25815"
       inkscape:locked="false" /><sodipodi:guide
       position="338.72861,45.217524"
       orientation="170.90088,0"
       id="guide25817"
       inkscape:locked="false" /><sodipodi:guide
       position="338.72861,0"
       orientation="0,-1280.2341"
       id="guide25819"
       inkscape:locked="false" /><sodipodi:guide
       position="0,0"
       orientation="-170.90088,0"
       id="guide25821"
       inkscape:locked="false" /></sodipodi:namedview><defs
     id="defs914"><linearGradient
       inkscape:collect="always"
       id="linearGradient26097"><stop
         style="stop-color:#008000;stop-opacity:1;"
         offset="0"
         id="stop26093" /><stop
         style="stop-color:#008000;stop-opacity:0;"
         offset="1"
         id="stop26095" /></linearGradient><linearGradient
       x1="49.02155"
       y1="-0.079835396"
       x2="49.02155"
       y2="97.845656"
       id="linearGradient-1"
       gradientTransform="scale(0.46153975,2.1666606)"
       gradientUnits="userSpaceOnUse"><stop
         stop-color="#16B0ED"
         stop-opacity="0.800235524"
         offset="0%"
         id="stop21268" /><stop
         stop-color="#0F59B2"
         stop-opacity="0.83700023"
         offset="100%"
         id="stop21270" /></linearGradient><linearGradient
       x1="326.17366"
       y1="-0.069164939"
       x2="326.17366"
       y2="98.851547"
       id="linearGradient-2"
       gradientTransform="scale(0.46628455,2.1446132)"
       gradientUnits="userSpaceOnUse"><stop
         stop-color="#7DB643"
         offset="0%"
         id="stop21273" /><stop
         stop-color="#367533"
         offset="100%"
         id="stop21275" /></linearGradient><linearGradient
       x1="103.88479"
       y1="-0.11508822"
       x2="103.88479"
       y2="178.55785"
       id="linearGradient-3"
       gradientTransform="scale(0.84203823,1.1875945)"
       gradientUnits="userSpaceOnUse"><stop
         stop-color="#88C649"
         stop-opacity="0.8"
         offset="0%"
         id="stop21278" /><stop
         stop-color="#439240"
         stop-opacity="0.84"
         offset="100%"
         id="stop21280" /></linearGradient><linearGradient
       inkscape:collect="always"
       xlink:href="#linearGradient26097"
       id="linearGradient26099"
       x1="140.11095"
       y1="36.652103"
       x2="147.14761"
       y2="51.291344"
       gradientUnits="userSpaceOnUse" /><linearGradient
       inkscape:collect="always"
       xlink:href="#linearGradient-1"
       id="linearGradient26961"
       x1="41.815037"
       y1="-158.52945"
       x2="14.234763"
       y2="-189.43152"
       gradientUnits="userSpaceOnUse" /></defs><g
     inkscape:label="Calque 1"
     inkscape:groupmode="layer"
     id="layer1"
     transform="translate(0.18935111,-15.684819)"><rect
       style="opacity:0.548822;fill:#d40000;stroke-width:1.83344;paint-order:stroke fill markers"
       id="rect33999"
       width="338.72861"
       height="45.20359"
       x="-0.18935111"
       y="15.698754" /><rect
       style="opacity:0.355634;fill:#006680;stroke-width:1.65063;paint-order:stroke fill markers"
       id="rect34339"
       width="26.692659"
       height="25.586941"
       x="262.76587"
       y="26.535446" /><rect
       style="opacity:0.548822;fill:#2c89a0;stroke-width:1.23381;paint-order:stroke fill markers"
       id="rect34341"
       width="18.80805"
       height="18.235161"
       x="280.0101"
       y="42.330086" /><rect
       style="fill:#2c89a0;stroke-width:0.815231;paint-order:stroke fill markers"
       id="rect34399"
       width="9.4040251"
       height="9.1175804"
       x="291.43533"
       y="15.860231" /><rect
       style="fill:#2c89a0;stroke-width:2.57994;paint-order:stroke fill markers"
       id="rect35401"
       width="7.8366871"
       height="7.5979838"
       x="275.99503"
       y="38.758221" /><rect
       style="fill:#aaeeff;stroke-width:2.06398;paint-order:stroke fill markers"
       id="rect35401-9"
       width="6.2693496"
       height="6.0783868"
       x="286.24731"
       y="49.065041" /><rect
       style="opacity:0.355634;fill:#0088aa;stroke-width:1.34832;paint-order:stroke fill markers"
       id="rect35477"
       width="12.538699"
       height="12.156774"
       x="283.14151"
       y="20.634697" /><rect
       style="opacity:0.355634;fill:#0088aa;stroke-width:1.80791;paint-order:stroke fill markers"
       id="rect36207"
       width="14.889706"
       height="14.436169"
       x="309.98898"
       y="28.862816" /><rect
       style="opacity:0.355634;fill:#006680;stroke-width:1.77164;paint-order:stroke fill markers"
       id="rect36209"
       width="10.971362"
       height="10.637177"
       x="301.04547"
       y="41.371979" /><rect
       style="opacity:0.355634;fill:#2c89a0;stroke-width:1.81355;paint-order:stroke fill markers"
       id="rect36211"
       width="7.8366871"
       height="7.5979838"
       x="292.24854"
       y="29.573551" /><rect
       style="opacity:0.971831;fill:#0088aa;stroke-width:1.73159;paint-order:stroke fill markers"
       id="rect36215"
       width="7.8366871"
       height="7.5979838"
       x="306.32364"
       y="38.671143" /><rect
       style="opacity:0.971831;fill:#216778;stroke-width:1.70094;paint-order:stroke fill markers"
       id="rect36217"
       width="7.8366871"
       height="7.5979838"
       x="320.69189"
       y="26.161957" /><rect
       style="opacity:0.971831;fill:#afdde9;stroke-width:1.6966;paint-order:stroke fill markers"
       id="rect36263"
       width="4.7020125"
       height="4.5587902"
       x="315.26718"
       y="33.695896" /><rect
       style="opacity:0.971831;fill:#afdde9;stroke-width:0.565536;paint-order:stroke fill markers"
       id="rect36263-4"
       width="1.5673374"
       height="1.5195967"
       x="324.05896"
       y="29.000593" /><rect
       style="opacity:0.971831;fill:#0b3661;fill-opacity:0.811765;stroke-width:0.753875;paint-order:stroke fill markers"
       id="rect36738"
       width="3.1346748"
       height="3.0391934"
       x="312.89005"
       y="37.121414"
       inkscape:transform-center-x="3.372167"
       inkscape:transform-center-y="-1.9190202" /><rect
       style="opacity:0.971831;fill:#0b3661;fill-opacity:0.811765;stroke-width:1.69623;paint-order:stroke fill markers"
       id="rect36738-8"
       width="7.0530186"
       height="6.8381853"
       x="259.65799"
       y="48.22448" /><rect
       style="opacity:0.971831;fill:#0b3661;fill-opacity:0.811765;stroke-width:2.82703;paint-order:stroke fill markers"
       id="rect36738-5"
       width="11.755031"
       height="11.396975"
       x="256.81729"
       y="20.620865" /><rect
       style="opacity:0.971831;fill:#2c89a0;fill-opacity:1;stroke-width:3.876;paint-order:stroke fill markers"
       id="rect36777"
       width="7.2570992"
       height="7.287591"
       x="266.33456"
       y="15.684819" /><path
       style="opacity:0.971831;fill:#0088aa;fill-opacity:1;stroke-width:1.79793;paint-order:stroke fill markers"
       d="m 300.81772,21.840877 0.0519,-4.171371 3.62856,1.909783 z"
       id="path37334" /><path
       style="opacity:0.971831;fill:#216778;fill-opacity:1;stroke-width:1.79793;paint-order:stroke fill markers"
       d="m 301.59525,21.350867 1.93092,-1.193616 0.0778,1.796706 z"
       id="path37336" /><path
       style="opacity:0.971831;fill:#5fbcd3;fill-opacity:1;stroke-width:1.79793;paint-order:stroke fill markers"
       d="m 303.55207,20.634698 0.0389,1.017713 0.62202,-0.603089 z"
       id="path37392" /><path
       style="opacity:0.971831;fill:#37abc8;fill-opacity:1;stroke-width:1.79793;paint-order:stroke fill markers"
       d="m 301.43975,17.958486 2.3456,1.256437 -0.0648,-2.148507 z"
       id="path37502" /><path
       style="opacity:0.971831;fill:#2c89a0;fill-opacity:1;stroke-width:1.79793;paint-order:stroke fill markers"
       d="m 301.98012,17.792901 1.20959,-0.497523 -1.0813,-0.604136 z"
       id="path37612" /><path
       style="opacity:0.971831;fill:#006680;fill-opacity:1;stroke-width:1.79793;paint-order:stroke fill markers"
       d="m 303.70285,17.757363 0.0183,1.030584 0.97132,-0.639673 z"
       id="path37668" /><path
       style="opacity:0.971831;fill:#0088aa;fill-opacity:1;stroke-width:1.79793;paint-order:stroke fill markers"
       d="m 302.34667,16.833392 0.5498,0.319837 0.0184,-0.550832 z"
       id="path37832" /><path
       style="opacity:0.971831;fill:#0088aa;fill-opacity:1;stroke-width:1.79793;paint-order:stroke fill markers"
       d="m 303.97974,18.586704 0.49244,-0.307825 0.0583,0.552832 z"
       id="path37836" /><path
       style="opacity:0.971831;fill:#00ccff;fill-opacity:1;stroke-width:1.79793;paint-order:stroke fill markers"
       d="m 304.49,18.439073 0.0259,0.274847 0.18143,-0.175901 z"
       id="path37892" /><path
       style="opacity:0.971831;fill:#00ccff;fill-opacity:1;stroke-width:1.79793;paint-order:stroke fill markers"
       d="m 302.78651,16.660147 -0.29323,0.111053 0.01,-0.297626 z"
       id="path37898" /><path
       style="opacity:0.971831;fill:#00aad4;fill-opacity:1;stroke-width:1.79793;paint-order:stroke fill markers"
       d="m 302.90563,16.713453 -0.005,0.279856 0.26573,-0.133268 z"
       id="path37900" /><path
       style="opacity:0.971831;fill:#00aad4;fill-opacity:1;stroke-width:1.79793;paint-order:stroke fill markers"
       d="m 302.50703,16.557977 -0.005,0.142143 -0.14199,-0.07552 z"
       id="path37906" /><rect
       style="opacity:0.355634;fill:#d40000;stroke-width:1.65063;paint-order:stroke fill markers"
       id="rect5497"
       width="26.692659"
       height="25.586941"
       x="262.76587"
       y="26.535446" /><rect
       style="opacity:0.548822;fill:#aa0000;stroke-width:1.23381;paint-order:stroke fill markers"
       id="rect5499"
       width="18.80805"
       height="18.235161"
       x="280.0101"
       y="42.330086" /><rect
       style="fill:#aa0000;stroke-width:0.815231;paint-order:stroke fill markers"
       id="rect5501"
       width="9.4040251"
       height="9.1175804"
       x="291.43533"
       y="15.860231" /><rect
       style="fill:#aa0000;stroke-width:2.57994;paint-order:stroke fill markers"
       id="rect5503"
       width="7.8366871"
       height="7.5979838"
       x="275.99503"
       y="38.758221" /><rect
       style="fill:#ff0000;stroke-width:2.06398;paint-order:stroke fill markers"
       id="rect5505"
       width="6.2693496"
       height="6.0783868"
       x="286.24731"
       y="49.065041" /><rect
       style="opacity:0.355634;fill:#aa0000;stroke-width:1.34832;paint-order:stroke fill markers"
       id="rect5507"
       width="12.538699"
       height="12.156774"
       x="283.14151"
       y="20.634697" /><rect
       style="opacity:0.355634;fill:#aa0000;stroke-width:1.80791;paint-order:stroke fill markers"
       id="rect5509"
       width="14.889706"
       height="14.436169"
       x="309.98898"
       y="28.862816" /><rect
       style="opacity:0.355634;fill:#aa0000;stroke-width:1.77164;paint-order:stroke fill markers"
       id="rect5511"
       width="10.971362"
       height="10.637177"
       x="301.04547"
       y="41.371979" /><rect
       style="opacity:0.355634;fill:#aa0000;stroke-width:1.81355;paint-order:stroke fill markers"
       id="rect5513"
       width="7.8366871"
       height="7.5979838"
       x="292.24854"
       y="29.573551" /><rect
       style="opacity:0.971831;fill:#aa0000;stroke-width:1.73159;paint-order:stroke fill markers"
       id="rect5515"
       width="7.8366871"
       height="7.5979838"
       x="306.32364"
       y="38.671143" /><rect
       style="opacity:0.971831;fill:#aa0000;stroke-width:1.70094;paint-order:stroke fill markers"
       id="rect5517"
       width="7.8366871"
       height="7.5979838"
       x="320.69189"
       y="26.161957" /><rect
       style="opacity:0.971831;fill:#ff0000;stroke-width:1.6966;paint-order:stroke fill markers"
       id="rect5519"
       width="4.7020125"
       height="4.5587902"
       x="315.26718"
       y="33.695896" /><rect
       style="opacity:0.971831;fill:#ff0000;stroke-width:0.565536;paint-order:stroke fill markers"
       id="rect5521"
       width="1.5673374"
       height="1.5195967"
       x="324.05896"
       y="29.000593" /><rect
       style="opacity:0.971831;fill:#ff0000;fill-opacity:0.811765;stroke-width:0.753875;paint-order:stroke fill markers"
       id="rect5523"
       width="3.1346748"
       height="3.0391934"
       x="312.89005"
       y="37.121414"
       inkscape:transform-center-x="3.372167"
       inkscape:transform-center-y="-1.9190202" /><rect
       style="opacity:0.971831;fill:#550000;fill-opacity:0.811765;stroke-width:1.69623;paint-order:stroke fill markers"
       id="rect5525"
       width="7.0530186"
       height="6.8381853"
       x="259.65799"
       y="48.22448" /><rect
       style="opacity:0.971831;fill:#550000;fill-opacity:0.811765;stroke-width:2.82703;paint-order:stroke fill markers"
       id="rect5527"
       width="11.755031"
       height="11.396975"
       x="256.81729"
       y="20.620865" /><rect
       style="opacity:0.971831;fill:#aa0000;fill-opacity:1;stroke-width:3.876;paint-order:stroke fill markers"
       id="rect5529"
       width="7.2570992"
       height="7.287591"
       x="266.33456"
       y="15.684819" /><path
       style="opacity:0.971831;fill:#800000;fill-opacity:1;stroke-width:1.79793;paint-order:stroke fill markers"
       d="m 300.81772,21.840877 0.0519,-4.171371 3.62856,1.909783 z"
       id="path5531" /><path
       style="opacity:0.971831;fill:#aa0000;fill-opacity:1;stroke-width:1.79793;paint-order:stroke fill markers"
       d="m 301.59525,21.350867 1.93092,-1.193616 0.0778,1.796706 z"
       id="path5533" /><path
       style="opacity:0.971831;fill:#ff0000;fill-opacity:1;stroke-width:1.79793;paint-order:stroke fill markers"
       d="m 303.55207,20.634698 0.0389,1.017713 0.62202,-0.603089 z"
       id="path5535" /><path
       style="opacity:0.971831;fill:#d40000;fill-opacity:1;stroke-width:1.79793;paint-order:stroke fill markers"
       d="m 301.43975,17.958486 2.3456,1.256437 -0.0648,-2.148507 z"
       id="path5537" /><path
       style="opacity:0.971831;fill:#aa0000;fill-opacity:1;stroke-width:1.79793;paint-order:stroke fill markers"
       d="m 301.98012,17.792901 1.20959,-0.497523 -1.0813,-0.604136 z"
       id="path5539" /><path
       style="opacity:0.971831;fill:#aa0000;fill-opacity:1;stroke-width:1.79793;paint-order:stroke fill markers"
       d="m 303.70285,17.757363 0.0183,1.030584 0.97132,-0.639673 z"
       id="path5541" /><path
       style="opacity:0.971831;fill:#d40000;fill-opacity:1;stroke-width:1.79793;paint-order:stroke fill markers"
       d="m 302.34667,16.833392 0.5498,0.319837 0.0184,-0.550832 z"
       id="path5543" /><path
       style="opacity:0.971831;fill:#d40000;fill-opacity:1;stroke-width:1.79793;paint-order:stroke fill markers"
       d="m 303.97974,18.586704 0.49244,-0.307825 0.0583,0.552832 z"
       id="path5545" /><path
       style="opacity:0.971831;fill:#ff0000;fill-opacity:1;stroke-width:1.79793;paint-order:stroke fill markers"
       d="m 304.49,18.439073 0.0259,0.274847 0.18143,-0.175901 z"
       id="path5547" /><path
       style="opacity:0.971831;fill:#aa0000;fill-opacity:1;stroke-width:1.79793;paint-order:stroke fill markers"
       d="m 302.78651,16.660147 -0.29323,0.111053 0.01,-0.297626 z"
       id="path5549" /><path
       style="opacity:0.971831;fill:#aa0000;fill-opacity:1;stroke-width:1.79793;paint-order:stroke fill markers"
       d="m 302.90563,16.713453 -0.005,0.279856 0.26573,-0.133268 z"
       id="path5551" /><path
       style="opacity:0.971831;fill:#ff0000;fill-opacity:1;stroke-width:1.79793;paint-order:stroke fill markers"
       d="m 302.50703,16.557977 -0.005,0.142143 -0.14199,-0.07552 z"
       id="path5553" /><rect
       style="opacity:0.355634;fill:#006680;stroke-width:1.65063;paint-order:stroke fill markers"
       id="rect34339-7"
       width="26.692659"
       height="25.586941"
       x="-70.168915"
       y="-49.932426"
       transform="scale(-1)" /><rect
       style="opacity:0.548822;fill:#2c89a0;stroke-width:1.23381;paint-order:stroke fill markers"
       id="rect34341-2"
       width="18.80805"
       height="18.235161"
       x="-52.924702"
       y="-34.137787"
       transform="scale(-1)" /><rect
       style="fill:#2c89a0;stroke-width:0.815231;paint-order:stroke fill markers"
       id="rect34399-3"
       width="9.4040251"
       height="9.1175804"
       x="-41.499466"
       y="-60.607639"
       transform="scale(-1)" /><rect
       style="fill:#2c89a0;stroke-width:2.57994;paint-order:stroke fill markers"
       id="rect35401-6"
       width="7.8366871"
       height="7.5979838"
       x="-56.939758"
       y="-37.709652"
       transform="scale(-1)" /><rect
       style="fill:#aaeeff;stroke-width:2.06398;paint-order:stroke fill markers"
       id="rect35401-9-7"
       width="6.2693496"
       height="6.0783868"
       x="-46.687469"
       y="-27.402834"
       transform="scale(-1)" /><rect
       style="opacity:0.355634;fill:#0088aa;stroke-width:1.34832;paint-order:stroke fill markers"
       id="rect35477-6"
       width="12.538699"
       height="12.156774"
       x="-49.793278"
       y="-55.833176"
       transform="scale(-1)" /><rect
       style="opacity:0.355634;fill:#0088aa;stroke-width:1.80791;paint-order:stroke fill markers"
       id="rect36207-8"
       width="14.889706"
       height="14.436169"
       x="-22.945784"
       y="-47.605053"
       transform="scale(-1)" /><rect
       style="opacity:0.355634;fill:#006680;stroke-width:1.77164;paint-order:stroke fill markers"
       id="rect36209-0"
       width="10.971362"
       height="10.637177"
       x="-31.889338"
       y="-35.095894"
       transform="scale(-1)" /><rect
       style="opacity:0.355634;fill:#2c89a0;stroke-width:1.81355;paint-order:stroke fill markers"
       id="rect36211-5"
       width="7.8366871"
       height="7.5979838"
       x="-40.686264"
       y="-46.894321"
       transform="scale(-1)" /><rect
       style="opacity:0.971831;fill:#0088aa;stroke-width:1.73159;paint-order:stroke fill markers"
       id="rect36215-7"
       width="7.8366871"
       height="7.5979838"
       x="-26.611147"
       y="-37.79673"
       transform="scale(-1)" /><rect
       style="opacity:0.971831;fill:#216778;stroke-width:1.70094;paint-order:stroke fill markers"
       id="rect36217-4"
       width="7.8366871"
       height="7.5979838"
       x="-12.242852"
       y="-50.305916"
       transform="scale(-1)" /><rect
       style="opacity:0.971831;fill:#afdde9;stroke-width:1.6966;paint-order:stroke fill markers"
       id="rect36263-1"
       width="4.7020125"
       height="4.5587902"
       x="-17.66762"
       y="-42.771976"
       transform="scale(-1)" /><rect
       style="opacity:0.971831;fill:#afdde9;stroke-width:0.565536;paint-order:stroke fill markers"
       id="rect36263-4-7"
       width="1.5673374"
       height="1.5195967"
       x="-8.8758364"
       y="-47.467278"
       transform="scale(-1)" /><rect
       style="opacity:0.971831;fill:#0b3661;fill-opacity:0.811765;stroke-width:0.753875;paint-order:stroke fill markers"
       id="rect36738-9"
       width="3.1346748"
       height="3.0391934"
       x="-20.044718"
       y="-39.346458"
       inkscape:transform-center-x="-3.3721571"
       inkscape:transform-center-y="1.9190178"
       transform="scale(-1)" /><rect
       style="opacity:0.971831;fill:#0b3661;fill-opacity:0.811765;stroke-width:1.69623;paint-order:stroke fill markers"
       id="rect36738-8-8"
       width="7.0530186"
       height="6.8381853"
       x="-73.276802"
       y="-28.243391"
       transform="scale(-1)" /><rect
       style="opacity:0.971831;fill:#0b3661;fill-opacity:0.811765;stroke-width:2.82703;paint-order:stroke fill markers"
       id="rect36738-5-2"
       width="11.755031"
       height="11.396975"
       x="-76.1175"
       y="-55.847008"
       transform="scale(-1)" /><rect
       style="opacity:0.971831;fill:#2c89a0;fill-opacity:1;stroke-width:3.876;paint-order:stroke fill markers"
       id="rect36777-3"
       width="7.2570992"
       height="7.287591"
       x="-66.600235"
       y="-60.783066"
       transform="scale(-1)" /><path
       style="opacity:0.971831;fill:#0088aa;fill-opacity:1;stroke-width:1.79793;paint-order:stroke fill markers"
       d="m 32.11707,54.626992 -0.05188,4.171372 -3.628559,-1.909783 z"
       id="path37334-9" /><path
       style="opacity:0.971831;fill:#216778;fill-opacity:1;stroke-width:1.79793;paint-order:stroke fill markers"
       d="m 31.33953,55.117003 -1.930914,1.193616 -0.07774,-1.796706 z"
       id="path37336-4" /><path
       style="opacity:0.971831;fill:#5fbcd3;fill-opacity:1;stroke-width:1.79793;paint-order:stroke fill markers"
       d="m 29.382708,55.833173 -0.03887,-1.017714 -0.62203,0.60309 z"
       id="path37392-4" /><path
       style="opacity:0.971831;fill:#37abc8;fill-opacity:1;stroke-width:1.79793;paint-order:stroke fill markers"
       d="m 31.49504,58.509384 -2.345598,-1.256438 0.06474,2.148509 z"
       id="path37502-0" /><path
       style="opacity:0.971831;fill:#2c89a0;fill-opacity:1;stroke-width:1.79793;paint-order:stroke fill markers"
       d="m 30.95467,58.674968 -1.209593,0.497524 1.08129,0.604139 z"
       id="path37612-6" /><path
       style="opacity:0.971831;fill:#006680;fill-opacity:1;stroke-width:1.79793;paint-order:stroke fill markers"
       d="m 29.231931,58.710507 -0.01834,-1.030584 -0.971325,0.639672 z"
       id="path37668-0" /><path
       style="opacity:0.971831;fill:#0088aa;fill-opacity:1;stroke-width:1.79793;paint-order:stroke fill markers"
       d="M 30.588117,59.634479 30.03831,59.314641 30.01997,59.865466 Z"
       id="path37832-6" /><path
       style="opacity:0.971831;fill:#0088aa;fill-opacity:1;stroke-width:1.79793;paint-order:stroke fill markers"
       d="m 28.955044,57.881167 -0.492441,0.307824 -0.05831,-0.552833 z"
       id="path37836-7" /><path
       style="opacity:0.971831;fill:#00ccff;fill-opacity:1;stroke-width:1.79793;paint-order:stroke fill markers"
       d="m 28.444782,58.028798 -0.02585,-0.274848 -0.181436,0.175901 z"
       id="path37892-1" /><path
       style="opacity:0.971831;fill:#00ccff;fill-opacity:1;stroke-width:1.79793;paint-order:stroke fill markers"
       d="m 30.148274,59.807721 0.293233,-0.111082 -0.0094,0.297629 z"
       id="path37898-6" /><path
       style="opacity:0.971831;fill:#00aad4;fill-opacity:1;stroke-width:1.79793;paint-order:stroke fill markers"
       d="m 30.029157,59.754414 0.0047,-0.279854 -0.265726,0.133269 z"
       id="path37900-2" /><path
       style="opacity:0.971831;fill:#00aad4;fill-opacity:1;stroke-width:1.79793;paint-order:stroke fill markers"
       d="m 30.427761,59.9099 0.0047,-0.142083 0.142001,0.07552 z"
       id="path37906-0" /><rect
       style="opacity:0.355634;fill:#d40000;stroke-width:1.65063;paint-order:stroke fill markers"
       id="rect5497-6"
       width="26.692659"
       height="25.586941"
       x="-70.168915"
       y="-49.932426"
       transform="scale(-1)" /><rect
       style="opacity:0.548822;fill:#aa0000;stroke-width:1.23381;paint-order:stroke fill markers"
       id="rect5499-6"
       width="18.80805"
       height="18.235161"
       x="-52.924702"
       y="-34.137787"
       transform="scale(-1)" /><rect
       style="fill:#aa0000;stroke-width:0.815231;paint-order:stroke fill markers"
       id="rect5501-4"
       width="9.4040251"
       height="9.1175804"
       x="-41.499466"
       y="-60.607639"
       transform="scale(-1)" /><rect
       style="fill:#aa0000;stroke-width:2.57994;paint-order:stroke fill markers"
       id="rect5503-4"
       width="7.8366871"
       height="7.5979838"
       x="-56.939758"
       y="-37.709652"
       transform="scale(-1)" /><rect
       style="fill:#ff0000;stroke-width:2.06398;paint-order:stroke fill markers"
       id="rect5505-9"
       width="6.2693496"
       height="6.0783868"
       x="-46.687469"
       y="-27.402834"
       transform="scale(-1)" /><rect
       style="opacity:0.355634;fill:#aa0000;stroke-width:1.34832;paint-order:stroke fill markers"
       id="rect5507-5"
       width="12.538699"
       height="12.156774"
       x="-49.793278"
       y="-55.833176"
       transform="scale(-1)" /><rect
       style="opacity:0.355634;fill:#aa0000;stroke-width:1.80791;paint-order:stroke fill markers"
       id="rect5509-0"
       width="14.889706"
       height="14.436169"
       x="-22.945784"
       y="-47.605053"
       transform="scale(-1)" /><rect
       style="opacity:0.355634;fill:#d40000;stroke-width:1.77164;paint-order:stroke fill markers"
       id="rect5511-1"
       width="10.971362"
       height="10.637177"
       x="-31.889338"
       y="-35.095894"
       transform="scale(-1)" /><rect
       style="opacity:0.355634;fill:#d40000;stroke-width:1.81355;paint-order:stroke fill markers"
       id="rect5513-5"
       width="7.8366871"
       height="7.5979838"
       x="-40.686264"
       y="-46.894321"
       transform="scale(-1)" /><rect
       style="opacity:0.971831;fill:#aa0000;stroke-width:1.73159;paint-order:stroke fill markers"
       id="rect5515-3"
       width="7.8366871"
       height="7.5979838"
       x="-26.611147"
       y="-37.79673"
       transform="scale(-1)" /><rect
       style="opacity:0.971831;fill:#c83737;stroke-width:1.70094;paint-order:stroke fill markers"
       id="rect5517-2"
       width="7.8366871"
       height="7.5979838"
       x="-12.242852"
       y="-50.305916"
       transform="scale(-1)" /><rect
       style="opacity:0.971831;fill:#ff0000;stroke-width:1.6966;paint-order:stroke fill markers"
       id="rect5519-8"
       width="4.7020125"
       height="4.5587902"
       x="-17.66762"
       y="-42.771976"
       transform="scale(-1)" /><rect
       style="opacity:0.971831;fill:#ff0000;stroke-width:0.565536;paint-order:stroke fill markers"
       id="rect5521-9"
       width="1.5673374"
       height="1.5195967"
       x="-8.8758364"
       y="-47.467278"
       transform="scale(-1)" /><rect
       style="opacity:0.971831;fill:#ff0000;fill-opacity:0.811765;stroke-width:0.753875;paint-order:stroke fill markers"
       id="rect5523-0"
       width="3.1346748"
       height="3.0391934"
       x="-20.044718"
       y="-39.346458"
       inkscape:transform-center-x="-3.3721571"
       inkscape:transform-center-y="1.9190178"
       transform="scale(-1)" /><rect
       style="opacity:0.971831;fill:#800000;fill-opacity:0.811765;stroke-width:1.69623;paint-order:stroke fill markers"
       id="rect5525-5"
       width="7.0530186"
       height="6.8381853"
       x="-73.276802"
       y="-28.243391"
       transform="scale(-1)" /><rect
       style="opacity:0.971831;fill:#800000;fill-opacity:0.811765;stroke-width:2.82703;paint-order:stroke fill markers"
       id="rect5527-8"
       width="11.755031"
       height="11.396975"
       x="-76.1175"
       y="-55.847008"
       transform="scale(-1)" /><rect
       style="opacity:0.971831;fill:#aa0000;fill-opacity:1;stroke-width:3.876;paint-order:stroke fill markers"
       id="rect5529-8"
       width="7.2570992"
       height="7.287591"
       x="-66.600235"
       y="-60.783066"
       transform="scale(-1)" /><path
       style="opacity:0.971831;fill:#d40000;fill-opacity:1;stroke-width:1.79793;paint-order:stroke fill markers"
       d="m 32.11707,54.626992 -0.05188,4.171372 -3.628559,-1.909783 z"
       id="path5531-4" /><path
       style="opacity:0.971831;fill:#800000;fill-opacity:1;stroke-width:1.79793;paint-order:stroke fill markers"
       d="m 31.33953,55.117003 -1.930914,1.193616 -0.07774,-1.796706 z"
       id="path5533-6" /><path
       style="opacity:0.971831;fill:#d40000;fill-opacity:1;stroke-width:1.79793;paint-order:stroke fill markers"
       d="m 29.382708,55.833173 -0.03887,-1.017714 -0.62203,0.60309 z"
       id="path5535-6" /><path
       style="opacity:0.971831;fill:#ff0000;fill-opacity:1;stroke-width:1.79793;paint-order:stroke fill markers"
       d="m 31.49504,58.509384 -2.345598,-1.256438 0.06474,2.148509 z"
       id="path5537-5" /><path
       style="opacity:0.971831;fill:#d40000;fill-opacity:1;stroke-width:1.79793;paint-order:stroke fill markers"
       d="m 30.95467,58.674968 -1.209593,0.497524 1.08129,0.604139 z"
       id="path5539-1" /><path
       style="opacity:0.971831;fill:#800000;fill-opacity:1;stroke-width:1.79793;paint-order:stroke fill markers"
       d="m 29.231931,58.710507 -0.01834,-1.030584 -0.971325,0.639672 z"
       id="path5541-2" /><path
       style="opacity:0.971831;fill:#aa0000;fill-opacity:1;stroke-width:1.79793;paint-order:stroke fill markers"
       d="M 30.588117,59.634479 30.03831,59.314641 30.01997,59.865466 Z"
       id="path5543-3" /><path
       style="opacity:0.971831;fill:#d40000;fill-opacity:1;stroke-width:1.79793;paint-order:stroke fill markers"
       d="m 28.955044,57.881167 -0.492441,0.307824 -0.05831,-0.552833 z"
       id="path5545-4" /><path
       style="opacity:0.971831;fill:#ff0000;fill-opacity:1;stroke-width:1.79793;paint-order:stroke fill markers"
       d="m 28.444782,58.028798 -0.02585,-0.274848 -0.181436,0.175901 z"
       id="path5547-0" /><path
       style="opacity:0.971831;fill:#d40000;fill-opacity:1;stroke-width:1.79793;paint-order:stroke fill markers"
       d="m 30.148274,59.807721 0.293233,-0.111082 -0.0094,0.297629 z"
       id="path5549-0" /><path
       style="opacity:0.971831;fill:#ff0000;fill-opacity:1;stroke-width:1.79793;paint-order:stroke fill markers"
       d="m 30.029157,59.754414 0.0047,-0.279854 -0.265726,0.133269 z"
       id="path5551-5" /><path
       style="opacity:0.971831;fill:#ff0000;fill-opacity:1;stroke-width:1.79793;paint-order:stroke fill markers"
       d="m 30.427761,59.9099 0.0047,-0.142083 0.142001,0.07552 z"
       id="path5553-3" /><g
       id="mark"
       sketch:type="MSLayerGroup"
       transform="matrix(0.17560974,0,0,0.1520264,106.41053,22.836364)"
       style="fill:none;fill-rule:evenodd;stroke:none;stroke-width:1"
       inkscape:transform-center-x="31.639223"
       inkscape:transform-center-y="-64.828984"><path
         d="M 0.02714063,45.458544 45.223647,-0.17297621 45.223646,211.99833 0.02714063,166.89384 Z"
         id="Left---green"
         fill="url(#linearGradient-1)"
         sketch:type="MSShapeGroup"
         style="fill:url(#linearGradient-1)" /><path
         d="M 129.33671,45.889361 175.15234,-0.14833204 174.22365,211.99833 129.02714,166.89384 Z"
         id="Right---blue"
         fill="url(#linearGradient-2)"
         sketch:type="MSShapeGroup"
         transform="matrix(-1,0,0,1,304,0)"
         style="fill:url(#linearGradient-2)" /><path
         d="M 45.193511,-0.13667814 162.69969,179.17338 129.81792,212.05433 12.250244,33.141173 Z"
         id="Cross---blue"
         fill="url(#linearGradient-3)"
         sketch:type="MSShapeGroup"
         style="fill:url(#linearGradient-3)" /><path
         d="m 45.233948,83.032105 -0.0625,7.0625 -36.2805789,-53.5625 3.3593749,-3.422181 z"
         id="Shadow"
         fill-opacity="0.13"
         fill="#000000"
         sketch:type="MSShapeGroup" /></g><path
       id="path25237"
       style="fill:#007acc;stroke-width:1.03258"
       d="m 226.11786,22.722537 v 27.651791 l -26.64971,-3.587671 26.64971,8.129322 8.89393,-3.34251 V 26.074801 Z m -9.32822,4.718532 -8.1674,7.293695 -4.913,-3.34186 -2.01778,0.609325 4.98948,4.482475 -4.98948,4.482474 2.01778,0.609325 4.913,-3.341859 8.1674,7.332712 4.88091,-1.887152 V 29.337976 Z m 0,5.210153 v 7.666963 l -5.61837,-3.833481 z" /><g
       id="g25887"
       transform="matrix(1.4633549,0,0,1.632566,-47.077729,-29.532768)"><path
         d="m 145.66193,45.441574 h -2.10214 l -3.82889,-9.171957 h 1.92383 c 0.16893,0 0.31119,0.0388 0.427,0.116214 0.11561,0.07759 0.19558,0.175751 0.2393,0.295004 l 1.85814,4.898862 c 0.10623,0.286065 0.19558,0.56623 0.26747,0.840316 0.0719,0.274265 0.13607,0.54835 0.19238,0.822436 0.0563,-0.274086 0.12031,-0.548171 0.19238,-0.822436 0.0719,-0.274086 0.16423,-0.554251 0.27685,-0.840316 l 1.90506,-4.898862 c 0.0437,-0.119253 0.12199,-0.217409 0.2346,-0.295004 0.11262,-0.07742 0.24701,-0.116214 0.40355,-0.116214 h 1.82998 z"
         id="path21295"
         style="fill-rule:evenodd;stroke:none;stroke-width:0.102238;fill:url(#linearGradient26099);fill-opacity:1" /><g
         style="fill:#000105"
         id="g25810"
         transform="matrix(0.26458333,0,0,0.26458333,145.64001,89.108574)"><path
           id="path25801"
           d="m 27.929339,-190.16589 c -3.869564,0 -7.426662,0.98361 -10.007789,2.74387 a 11.396091,8.9857058 0 0 0 -4.077862,6.74503 c 0,2.70578 1.498397,4.97792 4.451596,6.7516 1.983683,1.19362 4.584652,2.15789 8.47548,3.13022 7.562657,1.89437 7.5619,3.39987 7.5619,4.11906 0,1.69655 -2.401641,3.45438 -6.415781,3.45438 -2.523723,-0.0436 -4.964862,-0.70875 -6.984689,-1.90237 l -0.519078,-0.31105 -6.017132,3.20553 0.651961,0.61556 c 3.321021,2.81977 7.979028,4.42981 12.860633,4.44322 3.865311,0 7.441545,-0.98687 10.007789,-2.74713 2.551362,-1.67644 4.010725,-4.13658 4.040491,-6.74177 0.0042,-2.71582 -1.491721,-4.97769 -4.464058,-6.76141 l 0.05814,-0.004 c -1.983683,-1.19361 -4.584651,-2.15788 -8.475476,-3.13022 -7.562658,-1.89438 -7.566056,-3.40139 -7.566056,-4.12561 0,-1.67643 2.401541,-3.44782 6.419934,-3.44782 a 12.140239,9.5724591 0 0 1 6.980539,1.90236 l 0.523228,0.30778 6.01298,-3.20554 -0.656111,-0.61556 a 17.583147,13.86414 0 0 0 -12.860636,-4.42681 z"
           style="stroke-width:1.88794;fill:url(#linearGradient26961);fill-opacity:1" /></g></g></g></svg>
